# xmcd
#
# Track frame offsets: 
#        150
#        12902
#        24357
#        37489
#        50191
#        63432
#        77642
#        88776
#        103302
#        114219
#        127927
#        140336
#        153457
#        165631
#        178725
#        191448
#        203753
#        217892
#
# Disc length: 3070 seconds
#
# Revision: 2
# Processed by: cddbd v1.5.2PL0 Copyright (c) Steve Scherf et al.
# Submitted via: ExactAudioCopy v0.95b2
#
DISCID=f70bfc12
DTITLE=Blind Boy Fuller - The Essential - Disc 2
DYEAR=2001
DGENRE=Blues
TTITLE0=Piccolo Rag
TTITLE1=Screaming and Crying Blues
TTITLE2=I'm a Stranger Here
TTITLE3=I Crave My Pigmeat
TTITLE4=Step It Up And Go
TTITLE5=Looking For My Woman
TTITLE6=Heart Ease Blues
TTITLE7=Bull Dog Blues
TTITLE8=Get Your YAS Yas Out
TTITLE9=Worn Out Engine Blues
TTITLE10=Thousand Woman Blues
TTITLE11=No Stranger Now
TTITLE12=Twelve Gates to the City
TTITLE13=Walking My Troubles Away
TTITLE14=Shake IT, Baby
TTITLE15=I Want Some of Your Pie
TTITLE16=Black and Tan
TTITLE17=You've Got Something There
EXTD=
EXTT0=
EXTT1=
EXTT2=
EXTT3=
EXTT4=
EXTT5=
EXTT6=
EXTT7=
EXTT8=
EXTT9=
EXTT10=
EXTT11=
EXTT12=
EXTT13=
EXTT14=
EXTT15=
EXTT16=
EXTT17=
PLAYORDER=
